<svg xmlns="http://www.w3.org/2000/svg" viewBox="0 0 122.36 156.09"><defs><style>.cls-1{fill:#7c878e;}.cls-2{opacity:0.1;}.cls-3{fill:#5b6770;}</style></defs><g id="Capa_2" data-name="Capa 2"><g id="Capa_1-2" data-name="Capa 1"><path class="cls-1" d="M83.62,53A14.23,14.23,0,0,1,69.41,38.74V0H9.48A9.47,9.47,0,0,0,0,9.48V146.61a9.49,9.49,0,0,0,9.48,9.48H112.89a9.49,9.49,0,0,0,9.47-9.48V53ZM54.68,114.21a20.92,20.92,0,0,1-9.57,2.19,22,22,0,0,1-15.36-6.15,20.78,20.78,0,0,1-4.62-6.67,21,21,0,0,1,0-16.5,21,21,0,0,1,4.62-6.7,21.25,21.25,0,0,1,6.89-4.5,22.14,22.14,0,0,1,8.47-1.62,21,21,0,0,1,9.57,2.18,22.12,22.12,0,0,1,7.24,5.69l-5.43,5.58a14.39,14.39,0,0,0-4.85-4.34,13.23,13.23,0,0,0-6.53-1.65,13.4,13.4,0,0,0-5.35,1.09,14.18,14.18,0,0,0-4.39,3,13.61,13.61,0,0,0-3,4.31,12.81,12.81,0,0,0-1.09,5.26,12.63,12.63,0,0,0,1.09,5.2,13.77,13.77,0,0,0,3,4.32,14.33,14.33,0,0,0,4.39,2.94,13.23,13.23,0,0,0,5.35,1.09,12.84,12.84,0,0,0,6.66-1.7,15.19,15.19,0,0,0,4.82-4.49l5.48,5.63A22.47,22.47,0,0,1,54.68,114.21Zm31.15,1.42H78.62L62.88,75h8.74l10.56,28.53L92.58,75h8.63Z"/><path class="cls-2" d="M122.36,53,87,57.47A14.23,14.23,0,0,1,72.79,43.26L69.41,0Z"/><path class="cls-3" d="M122.36,53H83.62A14.23,14.23,0,0,1,69.41,38.74V0Z"/></g></g></svg>